<svg version="1.1" id="Layer_1" xmlns="http://www.w3.org/2000/svg" x="0" y="0" width="200" height="200" viewBox="0 0 500 1100" xml:space="preserve"><style>.st0{fill:#4e4e4e}</style><path class="st0" d="M673.44 701.05C439.51 815.47 205.17 920.14-30.5 1016.95c-92.61-33.86-121.75-183.88-55.59-250.39 211.17-96.93 437.17-201.11 646.82-294.85 12.48-4.16 12.73-6.62 1.19-12.48-201.39-88.67-401.61-180.79-601.76-267.78-5.01-.68-5.43.34-4.41 12.14 2.3 21.45-.71 116.76-.08 145.13 128.55 63.96 255.82 110.63 382.87 170.51-1.77 4.12-26.38 12.2-35.39 17.48-20.55 9.26-21.83 11.61-34.71 4.07-98.71-45.95-213-94.82-314.37-139.7-12.35-5.38-41.54-16.7-44.98-28.86-4.88-33.52-1.29-189.01-1.7-212.95.62-13.71 6.77-25.64 19.52-28.43 239.79 92.27 490.47 210.94 726.27 316.75 7.14 7.67 8.46 27.47-1.53 34.12-40.62 23.16-117.86 54.96-165.59 77.91-177.7 80.55-361.9 160.66-540.22 242.74-33.19 32.4-22.88 107.48 4.58 141.82 26.15 33.08 26.86 22.1 59.16 8.73 211.48-92.27 433.88-205.39 645.47-290.43 20.18.37 29.08 23.72 18.39 38.57"/><path class="st0" d="M625.32 549.46C409.18 646.93 191.04 743.71-23.54 845.92c-3.17 11.04 26.78-5.83 33.19-7.97 203.66-90.69 409.8-181.67 612.96-274.82 9.08-3.65 11.29-5.43 11.29-9.08-.01-4.17-2.89-5.78-8.58-4.59m-4.16 63.06C416.24 705.22 207.37 801.18.9 895.15c-8.95 3.02-9.87 4.83-9.51 10.69C199.66 821.43 414 716.98 620.73 626.61c20.76-6.39 13.91-20.85.43-14.09"/></svg>
